<mxfile host="Electron" agent="Mozilla/5.0 (X11; Linux x86_64) AppleWebKit/537.36 (KHTML, like Gecko) draw.io/27.0.9 Chrome/134.0.6998.205 Electron/35.4.0 Safari/537.36" version="27.0.9">
  <diagram name="Page-1" id="BZReUnk1ec4EFPudOvIo">
    <mxGraphModel dx="937" dy="581" grid="1" gridSize="10" guides="1" tooltips="1" connect="1" arrows="1" fold="1" page="1" pageScale="1" pageWidth="850" pageHeight="1100" math="0" shadow="0">
      <root>
        <mxCell id="0" />
        <mxCell id="1" parent="0" />
        <mxCell id="5bTX8HUB2Bgrj1Eg_fnE-24" value="products" style="shape=table;startSize=30;container=1;collapsible=1;childLayout=tableLayout;fixedRows=1;rowLines=0;fontStyle=1;align=center;resizeLast=1;html=1;" vertex="1" parent="1">
          <mxGeometry x="230" y="130" width="310" height="299.9999999999999" as="geometry" />
        </mxCell>
        <mxCell id="5bTX8HUB2Bgrj1Eg_fnE-25" value="" style="shape=tableRow;horizontal=0;startSize=0;swimlaneHead=0;swimlaneBody=0;fillColor=none;collapsible=0;dropTarget=0;points=[[0,0.5],[1,0.5]];portConstraint=eastwest;top=0;left=0;right=0;bottom=1;" vertex="1" parent="5bTX8HUB2Bgrj1Eg_fnE-24">
          <mxGeometry y="30" width="310" height="30" as="geometry" />
        </mxCell>
        <mxCell id="5bTX8HUB2Bgrj1Eg_fnE-26" value="PK" style="shape=partialRectangle;connectable=0;fillColor=none;top=0;left=0;bottom=0;right=0;fontStyle=1;overflow=hidden;whiteSpace=wrap;html=1;" vertex="1" parent="5bTX8HUB2Bgrj1Eg_fnE-25">
          <mxGeometry width="30" height="30" as="geometry">
            <mxRectangle width="30" height="30" as="alternateBounds" />
          </mxGeometry>
        </mxCell>
        <mxCell id="5bTX8HUB2Bgrj1Eg_fnE-27" value="ID" style="shape=partialRectangle;connectable=0;fillColor=none;top=0;left=0;bottom=0;right=0;align=left;spacingLeft=6;fontStyle=5;overflow=hidden;whiteSpace=wrap;html=1;" vertex="1" parent="5bTX8HUB2Bgrj1Eg_fnE-25">
          <mxGeometry x="30" width="280" height="30" as="geometry">
            <mxRectangle width="280" height="30" as="alternateBounds" />
          </mxGeometry>
        </mxCell>
        <mxCell id="5bTX8HUB2Bgrj1Eg_fnE-28" value="" style="shape=tableRow;horizontal=0;startSize=0;swimlaneHead=0;swimlaneBody=0;fillColor=none;collapsible=0;dropTarget=0;points=[[0,0.5],[1,0.5]];portConstraint=eastwest;top=0;left=0;right=0;bottom=0;" vertex="1" parent="5bTX8HUB2Bgrj1Eg_fnE-24">
          <mxGeometry y="60" width="310" height="30" as="geometry" />
        </mxCell>
        <mxCell id="5bTX8HUB2Bgrj1Eg_fnE-29" value="" style="shape=partialRectangle;connectable=0;fillColor=none;top=0;left=0;bottom=0;right=0;editable=1;overflow=hidden;whiteSpace=wrap;html=1;" vertex="1" parent="5bTX8HUB2Bgrj1Eg_fnE-28">
          <mxGeometry width="30" height="30" as="geometry">
            <mxRectangle width="30" height="30" as="alternateBounds" />
          </mxGeometry>
        </mxCell>
        <mxCell id="5bTX8HUB2Bgrj1Eg_fnE-30" value="Name" style="shape=partialRectangle;connectable=0;fillColor=none;top=0;left=0;bottom=0;right=0;align=left;spacingLeft=6;overflow=hidden;whiteSpace=wrap;html=1;" vertex="1" parent="5bTX8HUB2Bgrj1Eg_fnE-28">
          <mxGeometry x="30" width="280" height="30" as="geometry">
            <mxRectangle width="280" height="30" as="alternateBounds" />
          </mxGeometry>
        </mxCell>
        <mxCell id="5bTX8HUB2Bgrj1Eg_fnE-31" value="" style="shape=tableRow;horizontal=0;startSize=0;swimlaneHead=0;swimlaneBody=0;fillColor=none;collapsible=0;dropTarget=0;points=[[0,0.5],[1,0.5]];portConstraint=eastwest;top=0;left=0;right=0;bottom=0;" vertex="1" parent="5bTX8HUB2Bgrj1Eg_fnE-24">
          <mxGeometry y="90" width="310" height="30" as="geometry" />
        </mxCell>
        <mxCell id="5bTX8HUB2Bgrj1Eg_fnE-32" value="" style="shape=partialRectangle;connectable=0;fillColor=none;top=0;left=0;bottom=0;right=0;editable=1;overflow=hidden;whiteSpace=wrap;html=1;" vertex="1" parent="5bTX8HUB2Bgrj1Eg_fnE-31">
          <mxGeometry width="30" height="30" as="geometry">
            <mxRectangle width="30" height="30" as="alternateBounds" />
          </mxGeometry>
        </mxCell>
        <mxCell id="5bTX8HUB2Bgrj1Eg_fnE-33" value="Description" style="shape=partialRectangle;connectable=0;fillColor=none;top=0;left=0;bottom=0;right=0;align=left;spacingLeft=6;overflow=hidden;whiteSpace=wrap;html=1;" vertex="1" parent="5bTX8HUB2Bgrj1Eg_fnE-31">
          <mxGeometry x="30" width="280" height="30" as="geometry">
            <mxRectangle width="280" height="30" as="alternateBounds" />
          </mxGeometry>
        </mxCell>
        <mxCell id="5bTX8HUB2Bgrj1Eg_fnE-34" value="" style="shape=tableRow;horizontal=0;startSize=0;swimlaneHead=0;swimlaneBody=0;fillColor=none;collapsible=0;dropTarget=0;points=[[0,0.5],[1,0.5]];portConstraint=eastwest;top=0;left=0;right=0;bottom=0;" vertex="1" parent="5bTX8HUB2Bgrj1Eg_fnE-24">
          <mxGeometry y="120" width="310" height="30" as="geometry" />
        </mxCell>
        <mxCell id="5bTX8HUB2Bgrj1Eg_fnE-35" value="" style="shape=partialRectangle;connectable=0;fillColor=none;top=0;left=0;bottom=0;right=0;editable=1;overflow=hidden;whiteSpace=wrap;html=1;" vertex="1" parent="5bTX8HUB2Bgrj1Eg_fnE-34">
          <mxGeometry width="30" height="30" as="geometry">
            <mxRectangle width="30" height="30" as="alternateBounds" />
          </mxGeometry>
        </mxCell>
        <mxCell id="5bTX8HUB2Bgrj1Eg_fnE-36" value="Price" style="shape=partialRectangle;connectable=0;fillColor=none;top=0;left=0;bottom=0;right=0;align=left;spacingLeft=6;overflow=hidden;whiteSpace=wrap;html=1;" vertex="1" parent="5bTX8HUB2Bgrj1Eg_fnE-34">
          <mxGeometry x="30" width="280" height="30" as="geometry">
            <mxRectangle width="280" height="30" as="alternateBounds" />
          </mxGeometry>
        </mxCell>
        <mxCell id="5bTX8HUB2Bgrj1Eg_fnE-37" value="" style="shape=tableRow;horizontal=0;startSize=0;swimlaneHead=0;swimlaneBody=0;fillColor=none;collapsible=0;dropTarget=0;points=[[0,0.5],[1,0.5]];portConstraint=eastwest;top=0;left=0;right=0;bottom=0;" vertex="1" parent="5bTX8HUB2Bgrj1Eg_fnE-24">
          <mxGeometry y="150" width="310" height="30" as="geometry" />
        </mxCell>
        <mxCell id="5bTX8HUB2Bgrj1Eg_fnE-38" value="" style="shape=partialRectangle;connectable=0;fillColor=none;top=0;left=0;bottom=0;right=0;editable=1;overflow=hidden;whiteSpace=wrap;html=1;" vertex="1" parent="5bTX8HUB2Bgrj1Eg_fnE-37">
          <mxGeometry width="30" height="30" as="geometry">
            <mxRectangle width="30" height="30" as="alternateBounds" />
          </mxGeometry>
        </mxCell>
        <mxCell id="5bTX8HUB2Bgrj1Eg_fnE-39" value="Image" style="shape=partialRectangle;connectable=0;fillColor=none;top=0;left=0;bottom=0;right=0;align=left;spacingLeft=6;overflow=hidden;whiteSpace=wrap;html=1;" vertex="1" parent="5bTX8HUB2Bgrj1Eg_fnE-37">
          <mxGeometry x="30" width="280" height="30" as="geometry">
            <mxRectangle width="280" height="30" as="alternateBounds" />
          </mxGeometry>
        </mxCell>
        <mxCell id="5bTX8HUB2Bgrj1Eg_fnE-40" value="" style="shape=tableRow;horizontal=0;startSize=0;swimlaneHead=0;swimlaneBody=0;fillColor=none;collapsible=0;dropTarget=0;points=[[0,0.5],[1,0.5]];portConstraint=eastwest;top=0;left=0;right=0;bottom=0;" vertex="1" parent="5bTX8HUB2Bgrj1Eg_fnE-24">
          <mxGeometry y="180" width="310" height="30" as="geometry" />
        </mxCell>
        <mxCell id="5bTX8HUB2Bgrj1Eg_fnE-41" value="" style="shape=partialRectangle;connectable=0;fillColor=none;top=0;left=0;bottom=0;right=0;editable=1;overflow=hidden;whiteSpace=wrap;html=1;" vertex="1" parent="5bTX8HUB2Bgrj1Eg_fnE-40">
          <mxGeometry width="30" height="30" as="geometry">
            <mxRectangle width="30" height="30" as="alternateBounds" />
          </mxGeometry>
        </mxCell>
        <mxCell id="5bTX8HUB2Bgrj1Eg_fnE-42" value="Category" style="shape=partialRectangle;connectable=0;fillColor=none;top=0;left=0;bottom=0;right=0;align=left;spacingLeft=6;overflow=hidden;whiteSpace=wrap;html=1;" vertex="1" parent="5bTX8HUB2Bgrj1Eg_fnE-40">
          <mxGeometry x="30" width="280" height="30" as="geometry">
            <mxRectangle width="280" height="30" as="alternateBounds" />
          </mxGeometry>
        </mxCell>
        <mxCell id="5bTX8HUB2Bgrj1Eg_fnE-43" value="" style="shape=tableRow;horizontal=0;startSize=0;swimlaneHead=0;swimlaneBody=0;fillColor=none;collapsible=0;dropTarget=0;points=[[0,0.5],[1,0.5]];portConstraint=eastwest;top=0;left=0;right=0;bottom=0;" vertex="1" parent="5bTX8HUB2Bgrj1Eg_fnE-24">
          <mxGeometry y="210" width="310" height="30" as="geometry" />
        </mxCell>
        <mxCell id="5bTX8HUB2Bgrj1Eg_fnE-44" value="" style="shape=partialRectangle;connectable=0;fillColor=none;top=0;left=0;bottom=0;right=0;editable=1;overflow=hidden;whiteSpace=wrap;html=1;" vertex="1" parent="5bTX8HUB2Bgrj1Eg_fnE-43">
          <mxGeometry width="30" height="30" as="geometry">
            <mxRectangle width="30" height="30" as="alternateBounds" />
          </mxGeometry>
        </mxCell>
        <mxCell id="5bTX8HUB2Bgrj1Eg_fnE-45" value="&lt;span style=&quot;color: rgb(255, 255, 255); font-family: Helvetica; font-size: 12px; font-style: normal; font-variant-ligatures: normal; font-variant-caps: normal; font-weight: 400; letter-spacing: normal; orphans: 2; text-align: left; text-indent: 0px; text-transform: none; widows: 2; word-spacing: 0px; -webkit-text-stroke-width: 0px; white-space: normal; background-color: rgb(27, 29, 30); text-decoration-thickness: initial; text-decoration-style: initial; text-decoration-color: initial; display: inline !important; float: none;&quot;&gt;Created_at&lt;/span&gt;" style="shape=partialRectangle;connectable=0;fillColor=none;top=0;left=0;bottom=0;right=0;align=left;spacingLeft=6;overflow=hidden;whiteSpace=wrap;html=1;" vertex="1" parent="5bTX8HUB2Bgrj1Eg_fnE-43">
          <mxGeometry x="30" width="280" height="30" as="geometry">
            <mxRectangle width="280" height="30" as="alternateBounds" />
          </mxGeometry>
        </mxCell>
        <mxCell id="5bTX8HUB2Bgrj1Eg_fnE-46" value="" style="shape=tableRow;horizontal=0;startSize=0;swimlaneHead=0;swimlaneBody=0;fillColor=none;collapsible=0;dropTarget=0;points=[[0,0.5],[1,0.5]];portConstraint=eastwest;top=0;left=0;right=0;bottom=0;" vertex="1" parent="5bTX8HUB2Bgrj1Eg_fnE-24">
          <mxGeometry y="240" width="310" height="30" as="geometry" />
        </mxCell>
        <mxCell id="5bTX8HUB2Bgrj1Eg_fnE-47" value="" style="shape=partialRectangle;connectable=0;fillColor=none;top=0;left=0;bottom=0;right=0;editable=1;overflow=hidden;whiteSpace=wrap;html=1;" vertex="1" parent="5bTX8HUB2Bgrj1Eg_fnE-46">
          <mxGeometry width="30" height="30" as="geometry">
            <mxRectangle width="30" height="30" as="alternateBounds" />
          </mxGeometry>
        </mxCell>
        <mxCell id="5bTX8HUB2Bgrj1Eg_fnE-48" value="Update_at" style="shape=partialRectangle;connectable=0;fillColor=none;top=0;left=0;bottom=0;right=0;align=left;spacingLeft=6;overflow=hidden;whiteSpace=wrap;html=1;" vertex="1" parent="5bTX8HUB2Bgrj1Eg_fnE-46">
          <mxGeometry x="30" width="280" height="30" as="geometry">
            <mxRectangle width="280" height="30" as="alternateBounds" />
          </mxGeometry>
        </mxCell>
        <mxCell id="5bTX8HUB2Bgrj1Eg_fnE-49" value="" style="shape=tableRow;horizontal=0;startSize=0;swimlaneHead=0;swimlaneBody=0;fillColor=none;collapsible=0;dropTarget=0;points=[[0,0.5],[1,0.5]];portConstraint=eastwest;top=0;left=0;right=0;bottom=0;" vertex="1" parent="5bTX8HUB2Bgrj1Eg_fnE-24">
          <mxGeometry y="270" width="310" height="30" as="geometry" />
        </mxCell>
        <mxCell id="5bTX8HUB2Bgrj1Eg_fnE-50" value="" style="shape=partialRectangle;connectable=0;fillColor=none;top=0;left=0;bottom=0;right=0;editable=1;overflow=hidden;whiteSpace=wrap;html=1;" vertex="1" parent="5bTX8HUB2Bgrj1Eg_fnE-49">
          <mxGeometry width="30" height="30" as="geometry">
            <mxRectangle width="30" height="30" as="alternateBounds" />
          </mxGeometry>
        </mxCell>
        <mxCell id="5bTX8HUB2Bgrj1Eg_fnE-51" value="" style="shape=partialRectangle;connectable=0;fillColor=none;top=0;left=0;bottom=0;right=0;align=left;spacingLeft=6;overflow=hidden;whiteSpace=wrap;html=1;" vertex="1" parent="5bTX8HUB2Bgrj1Eg_fnE-49">
          <mxGeometry x="30" width="280" height="30" as="geometry">
            <mxRectangle width="280" height="30" as="alternateBounds" />
          </mxGeometry>
        </mxCell>
      </root>
    </mxGraphModel>
  </diagram>
</mxfile>
